<mxfile host="app.diagrams.net" agent="Mozilla/5.0 (Macintosh; Intel Mac OS X 10_15_7) AppleWebKit/537.36 (KHTML, like Gecko) Chrome/131.0.0.0 Safari/537.36" version="26.0.11">
  <diagram name="Page-1" id="eTl-st5Ho7Zqo2ssnRsO">
    <mxGraphModel dx="952" dy="497" grid="1" gridSize="10" guides="1" tooltips="1" connect="1" arrows="1" fold="1" page="1" pageScale="1" pageWidth="850" pageHeight="1100" math="0" shadow="0">
      <root>
        <mxCell id="0" />
        <mxCell id="1" parent="0" />
        <mxCell id="bQCv3VuIHQ_3GKoGvV1L-15" value="" style="edgeStyle=orthogonalEdgeStyle;rounded=0;orthogonalLoop=1;jettySize=auto;html=1;" edge="1" parent="1" source="bQCv3VuIHQ_3GKoGvV1L-2" target="bQCv3VuIHQ_3GKoGvV1L-14">
          <mxGeometry relative="1" as="geometry" />
        </mxCell>
        <mxCell id="bQCv3VuIHQ_3GKoGvV1L-2" value="ログイン" style="rounded=1;whiteSpace=wrap;html=1;fillColor=#FFFF66;" vertex="1" parent="1">
          <mxGeometry x="280" y="140" width="120" height="60" as="geometry" />
        </mxCell>
        <mxCell id="bQCv3VuIHQ_3GKoGvV1L-4" style="edgeStyle=orthogonalEdgeStyle;rounded=0;orthogonalLoop=1;jettySize=auto;html=1;entryX=0;entryY=0.5;entryDx=0;entryDy=0;" edge="1" parent="1" source="bQCv3VuIHQ_3GKoGvV1L-3" target="bQCv3VuIHQ_3GKoGvV1L-2">
          <mxGeometry relative="1" as="geometry" />
        </mxCell>
        <mxCell id="bQCv3VuIHQ_3GKoGvV1L-3" value="" style="ellipse;whiteSpace=wrap;html=1;aspect=fixed;strokeColor=#000000;fillColor=#000000;" vertex="1" parent="1">
          <mxGeometry x="40" y="150" width="40" height="40" as="geometry" />
        </mxCell>
        <mxCell id="bQCv3VuIHQ_3GKoGvV1L-32" style="edgeStyle=orthogonalEdgeStyle;rounded=0;orthogonalLoop=1;jettySize=auto;html=1;entryX=0.408;entryY=1.042;entryDx=0;entryDy=0;curved=1;entryPerimeter=0;" edge="1" parent="1" target="bQCv3VuIHQ_3GKoGvV1L-7">
          <mxGeometry relative="1" as="geometry">
            <mxPoint x="715" y="590" as="sourcePoint" />
            <mxPoint x="390" y="590" as="targetPoint" />
            <Array as="points">
              <mxPoint x="715" y="680" />
              <mxPoint x="350" y="680" />
              <mxPoint x="350" y="593" />
            </Array>
          </mxGeometry>
        </mxCell>
        <mxCell id="bQCv3VuIHQ_3GKoGvV1L-5" value="登録" style="rounded=1;whiteSpace=wrap;html=1;fillColor=#FFFF66;" vertex="1" parent="1">
          <mxGeometry x="660" y="530" width="120" height="60" as="geometry" />
        </mxCell>
        <mxCell id="bQCv3VuIHQ_3GKoGvV1L-7" value="借り、検索処理" style="rounded=1;whiteSpace=wrap;html=1;fillColor=#FFFF66;" vertex="1" parent="1">
          <mxGeometry x="295" y="530" width="120" height="60" as="geometry" />
        </mxCell>
        <mxCell id="bQCv3VuIHQ_3GKoGvV1L-25" value="" style="edgeStyle=orthogonalEdgeStyle;rounded=0;orthogonalLoop=1;jettySize=auto;html=1;" edge="1" parent="1" source="bQCv3VuIHQ_3GKoGvV1L-14" target="bQCv3VuIHQ_3GKoGvV1L-24">
          <mxGeometry relative="1" as="geometry" />
        </mxCell>
        <mxCell id="bQCv3VuIHQ_3GKoGvV1L-14" value="" style="rhombus;whiteSpace=wrap;html=1;fillColor=#FFFF66;rounded=1;" vertex="1" parent="1">
          <mxGeometry x="300" y="270" width="80" height="80" as="geometry" />
        </mxCell>
        <mxCell id="bQCv3VuIHQ_3GKoGvV1L-17" style="edgeStyle=orthogonalEdgeStyle;rounded=0;orthogonalLoop=1;jettySize=auto;html=1;exitX=1;exitY=0.5;exitDx=0;exitDy=0;entryX=0.6;entryY=-0.025;entryDx=0;entryDy=0;entryPerimeter=0;" edge="1" parent="1" source="bQCv3VuIHQ_3GKoGvV1L-14" target="bQCv3VuIHQ_3GKoGvV1L-5">
          <mxGeometry relative="1" as="geometry" />
        </mxCell>
        <mxCell id="bQCv3VuIHQ_3GKoGvV1L-19" value="メンバー" style="text;html=1;align=center;verticalAlign=middle;resizable=0;points=[];autosize=1;strokeColor=#FF6666;fillColor=#FFFFFF;strokeWidth=2;" vertex="1" parent="1">
          <mxGeometry x="200" y="268" width="70" height="30" as="geometry" />
        </mxCell>
        <mxCell id="bQCv3VuIHQ_3GKoGvV1L-21" value="メンバーではない" style="text;html=1;align=center;verticalAlign=middle;resizable=0;points=[];autosize=1;strokeColor=#FF6666;fillColor=#FFFFFF;strokeWidth=2;" vertex="1" parent="1">
          <mxGeometry x="400" y="268" width="120" height="30" as="geometry" />
        </mxCell>
        <mxCell id="bQCv3VuIHQ_3GKoGvV1L-22" value="登録は成功" style="text;html=1;align=center;verticalAlign=middle;resizable=0;points=[];autosize=1;strokeColor=#FF6666;fillColor=#FFFFFF;strokeWidth=2;" vertex="1" parent="1">
          <mxGeometry x="490" y="640" width="80" height="30" as="geometry" />
        </mxCell>
        <mxCell id="bQCv3VuIHQ_3GKoGvV1L-31" style="edgeStyle=orthogonalEdgeStyle;rounded=0;orthogonalLoop=1;jettySize=auto;html=1;exitX=1;exitY=0.5;exitDx=0;exitDy=0;" edge="1" parent="1" source="bQCv3VuIHQ_3GKoGvV1L-24" target="bQCv3VuIHQ_3GKoGvV1L-7">
          <mxGeometry relative="1" as="geometry" />
        </mxCell>
        <mxCell id="bQCv3VuIHQ_3GKoGvV1L-24" value="" style="rhombus;whiteSpace=wrap;html=1;fillColor=#FFFF66;rounded=1;" vertex="1" parent="1">
          <mxGeometry x="180" y="400" width="80" height="80" as="geometry" />
        </mxCell>
        <mxCell id="bQCv3VuIHQ_3GKoGvV1L-26" value="ユーザの管理&lt;br&gt;本の管理" style="whiteSpace=wrap;html=1;fillColor=#FFFF66;rounded=1;" vertex="1" parent="1">
          <mxGeometry x="50" y="530" width="120" height="60" as="geometry" />
        </mxCell>
        <mxCell id="bQCv3VuIHQ_3GKoGvV1L-28" style="edgeStyle=orthogonalEdgeStyle;rounded=0;orthogonalLoop=1;jettySize=auto;html=1;entryX=0.442;entryY=0.017;entryDx=0;entryDy=0;entryPerimeter=0;exitX=0;exitY=0.5;exitDx=0;exitDy=0;" edge="1" parent="1" source="bQCv3VuIHQ_3GKoGvV1L-24">
          <mxGeometry relative="1" as="geometry">
            <mxPoint x="120" y="450" as="sourcePoint" />
            <mxPoint x="90.03999999999996" y="530" as="targetPoint" />
          </mxGeometry>
        </mxCell>
        <mxCell id="bQCv3VuIHQ_3GKoGvV1L-29" value="メンバー" style="text;html=1;align=center;verticalAlign=middle;resizable=0;points=[];autosize=1;strokeColor=#FF6666;fillColor=#FFFFFF;strokeWidth=2;" vertex="1" parent="1">
          <mxGeometry x="280" y="395" width="70" height="30" as="geometry" />
        </mxCell>
        <mxCell id="bQCv3VuIHQ_3GKoGvV1L-30" value="管理者" style="text;html=1;align=center;verticalAlign=middle;resizable=0;points=[];autosize=1;strokeColor=#FF6666;fillColor=#FFFFFF;strokeWidth=2;" vertex="1" parent="1">
          <mxGeometry x="90" y="395" width="60" height="30" as="geometry" />
        </mxCell>
      </root>
    </mxGraphModel>
  </diagram>
</mxfile>
